<?xml version="1.0" encoding="iso-8859-1"?>
<!-- Generator: Adobe Illustrator 19.0.0, SVG Export Plug-In . SVG Version: 6.00 Build 0)  -->
<svg version="1.1" id="Layer_1" xmlns="http://www.w3.org/2000/svg" xmlns:xlink="http://www.w3.org/1999/xlink" x="0px" y="0px"
	 viewBox="0 0 512 512" style="enable-background:new 0 0 512 512;" xml:space="preserve">
<path style="fill:#8CE16E;" d="M256,8.017c62.484,0,98.426,50.258,128.267,145.37C399.535,202.048,427.023,256,427.023,332.96
	c0,94.454-76.569,171.023-171.023,171.023S84.977,427.414,84.977,332.96c0-76.96,27.488-130.913,42.756-179.574
	C157.574,58.275,193.516,8.017,256,8.017z"/>
<path style="fill:#FFF082;" d="M256,42.221c29.885,0,62.154,14.708,95.632,121.405c3.631,11.575,7.743,22.96,12.096,35.013
	c14.302,39.605,29.091,80.557,29.091,134.321c0,75.441-61.376,136.818-136.818,136.818S119.182,408.402,119.182,332.96
	c0-53.764,14.789-94.718,29.091-134.321c4.353-12.053,8.464-23.438,12.096-35.013C193.846,56.929,226.115,42.221,256,42.221"/>
<path style="fill:#FFDC64;" d="M256,204.693c-60.472,0-102.614,67.599-102.614,128.267c0,56.582,46.032,102.614,102.614,102.614
	s102.614-46.032,102.614-102.614C358.614,272.292,316.472,204.693,256,204.693L256,204.693z"/>
<path style="fill:#C86E37;" d="M332.96,332.96c0,42.504-34.457,76.96-76.96,76.96s-76.96-34.457-76.96-76.96
	c0-51.307,34.457-102.614,76.96-102.614S332.96,281.653,332.96,332.96z"/>
<path style="fill:#B45528;" d="M290.205,375.716c-37.781,0-68.409-31.175-68.409-69.631c0-18.071,4.645-36.135,12.546-51.462
	c4.442-8.618-5.765-17.527-13.572-11.777c-21.122,15.555-36.555,43.932-40.651,74.247c-6.238,46.173,25.62,90.543,72.161,92.739
	c22.304,1.053,42.603-7.414,57.256-21.671c5.711-5.557,0.514-14.967-7.324-13.532C298.315,375.342,294.305,375.716,290.205,375.716z
	"/>
<path d="M403.439,184.298c-4.196-11.619-8.159-22.593-11.522-33.311c-16.232-51.736-33.201-87.04-53.401-111.105
	C315.99,13.045,288.999,0,256,0s-59.99,13.045-82.515,39.881c-20.2,24.066-37.169,59.37-53.401,111.105
	c-3.363,10.718-7.326,21.692-11.522,33.311C93.749,225.315,76.96,271.806,76.96,332.96C76.96,431.683,157.277,512,256,512
	s179.04-80.317,179.04-179.04C435.04,271.806,418.251,225.315,403.439,184.298z M256,495.967
	c-89.882,0-163.006-73.124-163.006-163.006c0-58.349,16.282-103.437,30.648-143.217c4.255-11.783,8.275-22.914,11.74-33.958
	C166.526,56.522,201.471,16.033,256,16.033s89.474,40.489,120.618,139.752c3.465,11.044,7.484,22.174,11.74,33.958
	c14.366,39.78,30.648,84.868,30.648,143.217C419.006,422.843,345.882,495.967,256,495.967z"/>
<path d="M256,222.33c-22.764,0-44.398,12.566-60.913,35.384c-15.293,21.127-24.064,48.552-24.064,75.247
	c0,46.856,38.121,84.977,84.977,84.977s84.977-38.121,84.977-84.977c0-26.695-8.771-54.12-24.064-75.247
	C300.398,234.896,278.764,222.33,256,222.33z M256,401.904c-38.015,0-68.944-30.928-68.944-68.944
	c0-23.393,7.661-47.393,21.019-65.847c13.42-18.539,30.44-28.75,47.925-28.75s34.505,10.211,47.925,28.75
	c13.358,18.454,21.019,42.454,21.019,65.847C324.944,370.976,294.015,401.904,256,401.904z"/>
<path d="M267.686,258.965c-4.082-1.711-8.78,0.211-10.492,4.294c-1.711,4.083,0.211,8.781,4.295,10.492
	c13.262,5.559,26.18,28.693,28.799,51.57c0.468,4.09,3.935,7.106,7.955,7.106c0.305,0,0.611-0.018,0.921-0.053
	c4.398-0.503,7.556-4.477,7.053-8.876C303.397,298.863,288.935,267.872,267.686,258.965z"/>
<path d="M371.267,195.915c-4.322-11.967-8.405-23.271-11.987-34.69c-2.075-6.612-4.192-13.02-6.293-19.046
	c-1.458-4.182-6.031-6.388-10.209-4.931c-4.18,1.458-6.389,6.029-4.931,10.209c2.046,5.868,4.11,12.115,6.134,18.568
	c3.684,11.743,7.823,23.204,12.205,35.337c14.068,38.955,28.614,79.237,28.614,131.598c0,71.022-57.78,128.802-128.802,128.802
	c-39.204,0-75.823-17.604-100.47-48.297c-2.773-3.451-7.819-4.003-11.27-1.23c-3.453,2.772-4.004,7.818-1.231,11.269
	c27.706,34.503,68.882,54.291,112.971,54.291c79.862,0,144.835-64.973,144.835-144.835
	C400.835,277.793,385.804,236.169,371.267,195.915z"/>
<path d="M325.626,116.093c1.321,3.003,4.26,4.791,7.342,4.791c1.079,0,2.174-0.219,3.224-0.681c4.053-1.783,5.893-6.514,4.11-10.566
	c-1.686-3.831-3.411-7.559-5.129-11.08c-1.94-3.979-6.74-5.631-10.72-3.691c-3.979,1.941-5.632,6.74-3.691,10.72
	C322.388,108.918,324.024,112.453,325.626,116.093z"/>
<path d="M127.198,332.96c0-52.361,14.547-92.643,28.615-131.599c4.381-12.133,8.52-23.593,12.205-35.335
	C199.946,64.265,229.172,50.238,256,50.238c14.633,0,30.634,3.354,48.481,27.682c2.619,3.571,7.637,4.341,11.205,1.722
	c3.57-2.619,4.342-7.636,1.722-11.205C295.151,38.095,272.899,34.205,256,34.205c-14.197,0-32.973,2.639-52.311,23.219
	c-18.588,19.781-35.261,53.735-50.97,103.803c-3.582,11.419-7.664,22.721-11.987,34.691
	c-14.536,40.251-29.568,81.875-29.568,137.043c0,22.223,4.925,43.564,14.64,63.427c1.391,2.844,4.241,4.497,7.208,4.497
	c1.182,0,2.383-0.263,3.517-0.817c3.977-1.944,5.625-6.747,3.68-10.723C131.575,371.692,127.198,352.722,127.198,332.96z"/>
<g>
</g>
<g>
</g>
<g>
</g>
<g>
</g>
<g>
</g>
<g>
</g>
<g>
</g>
<g>
</g>
<g>
</g>
<g>
</g>
<g>
</g>
<g>
</g>
<g>
</g>
<g>
</g>
<g>
</g>
</svg>
